<svg width="512" height="513" viewBox="0 0 512 513" fill="none" xmlns="http://www.w3.org/2000/svg"><path d="M123.021 162.764c-.268-3.158 2.251-6.512 5.553-6.512H388l-17.863 216.536c-2.691 32.622-29.93 57.464-62.634 57.464h-104.04c-32.651 0-59.862-24.76-62.624-57.322l-17.818-210.166Z" fill="url(#a)"/><path d="M123.021 162.764c-.268-3.158 2.251-6.512 5.553-6.512H388l-17.863 216.536c-2.691 32.622-29.93 57.464-62.634 57.464h-104.04c-32.651 0-59.862-24.76-62.624-57.322l-17.818-210.166Z" fill="url(#b)"/><path d="M123.021 162.764c-.268-3.158 2.251-6.512 5.553-6.512H388l-17.863 216.536c-2.691 32.622-29.93 57.464-62.634 57.464h-104.04c-32.651 0-59.862-24.76-62.624-57.322l-17.818-210.166Z" fill="url(#c)"/><path d="M245.066 196.886c5.837-.954 10.729 4.408 9.248 10.135L227.24 311.636c-1.579 6.105-9.173 8.208-13.669 3.789l-79.122-77.777c-3.61-3.549-3.169-9.49.927-12.466l16.865-12.254s69.14-12.175 92.825-16.042Z" fill="url(#d)"/><path d="M245.066 196.886c5.837-.954 10.729 4.408 9.248 10.135L227.24 311.636c-1.579 6.105-9.173 8.208-13.669 3.789l-79.122-77.777c-3.61-3.549-3.169-9.49.927-12.466l16.865-12.254s69.14-12.175 92.825-16.042Z" fill="url(#e)"/><path d="M240.156 184.629c7.468-2.07 14.376 4.72 12.435 12.222l-21.428 82.8c-1.942 7.502-11.276 10.09-16.802 4.657l-60.994-59.957c-5.526-5.432-3.1-14.809 4.368-16.879l82.421-22.843Z" fill="url(#f)"/><path fill-rule="evenodd" clip-rule="evenodd" d="m225.071 278.076 21.428-82.801c.729-2.813-1.862-5.36-4.662-4.584l-82.422 22.844c-2.8.776-3.711 4.293-1.638 6.33l60.994 59.956c2.072 2.037 5.573 1.067 6.3-1.745Zm27.52-81.225c1.941-7.502-4.967-14.292-12.435-12.222l-82.421 22.843c-7.468 2.07-9.894 11.447-4.368 16.879l60.994 59.957c5.526 5.433 14.86 2.845 16.802-4.657l21.428-82.8Z" fill="url(#g)"/><path d="M331.247 337.73c4.403 4.013 4.342 10.963-.131 14.898l-77.883 68.522c-3.457 3.042-8.707 3.299-12.445.609l-55.562-39.968c-3.823-2.751-5.212-7.968-3.264-12.256l5.924-13.032s62.214-50.98 84.89-68.738c0 0 45.824 38.437 58.471 49.965Z" fill="url(#h)"/><path d="M331.247 337.73c4.403 4.013 4.342 10.963-.131 14.898l-77.883 68.522c-3.457 3.042-8.707 3.299-12.445.609l-55.562-39.968c-3.823-2.751-5.212-7.968-3.264-12.256l5.924-13.032s62.214-50.98 84.89-68.738c0 0 45.824 38.437 58.471 49.965Z" fill="url(#i)"/><path d="M331.247 337.73c4.403 4.013 4.342 10.963-.131 14.898l-77.883 68.522c-3.457 3.042-8.707 3.299-12.445.609l-55.562-39.968c-3.823-2.751-5.212-7.968-3.264-12.256l5.924-13.032s62.214-50.98 84.89-68.738c0 0 45.824 38.437 58.471 49.965Z" fill="url(#j)"/><path d="M329.083 325.649c3.89 3.889 3.889 10.195 0 14.084l-72.602 72.602c-3.889 3.889-10.196 3.889-14.085 0l-50.478-50.479a9.957 9.957 0 0 1 0-14.085l72.602-72.602c3.889-3.889 10.194-3.889 14.084 0l50.479 50.48Z" fill="url(#k)"/><path fill-rule="evenodd" clip-rule="evenodd" d="m252.96 408.815 72.602-72.603a4.978 4.978 0 0 0 0-7.043l-50.48-50.479a4.978 4.978 0 0 0-7.042 0l-72.602 72.603a4.978 4.978 0 0 0 0 7.042l50.48 50.48a4.982 4.982 0 0 0 7.042 0Zm76.123-69.082c3.889-3.889 3.89-10.195 0-14.084l-50.479-50.48c-3.89-3.889-10.195-3.889-14.084 0l-72.602 72.602a9.957 9.957 0 0 0 0 14.085l50.478 50.479c3.889 3.889 10.196 3.889 14.085 0l72.602-72.602Z" fill="url(#l)"/><path fill-rule="evenodd" clip-rule="evenodd" d="M260.28 95.263c-18.873-2.428-36.132 10.962-38.55 29.908l-2.254 17.654L199 140.19l2.254-17.654c3.868-30.298 31.47-51.712 61.65-47.83 30.181 3.884 51.511 31.594 47.643 61.892l-2.254 17.654-20.476-2.634 2.254-17.654c2.419-18.946-10.919-36.273-29.791-38.701Z" fill="url(#m)"/><path fill-rule="evenodd" clip-rule="evenodd" d="M260.28 95.263c-18.873-2.428-36.132 10.962-38.55 29.908l-2.254 17.654L199 140.19l2.254-17.654c3.868-30.298 31.47-51.712 61.65-47.83 30.181 3.884 51.511 31.594 47.643 61.892l-2.254 17.654-20.476-2.634 2.254-17.654c2.419-18.946-10.919-36.273-29.791-38.701Z" fill="url(#n)"/><path fill-rule="evenodd" clip-rule="evenodd" d="M260.28 95.263c-18.873-2.428-36.132 10.962-38.55 29.908l-2.254 17.654L199 140.19l2.254-17.654c3.868-30.298 31.47-51.712 61.65-47.83 30.181 3.884 51.511 31.594 47.643 61.892l-2.254 17.654-20.476-2.634 2.254-17.654c2.419-18.946-10.919-36.273-29.791-38.701Z" fill="url(#o)"/><path d="M410.905 155.31 99.393 115.342c-6.022-.772-11.53 3.493-12.302 9.527-.773 6.035 3.483 11.553 9.504 12.325l311.512 39.968c6.022.772 11.53-3.493 12.302-9.528.773-6.034-3.483-11.552-9.504-12.324Z" fill="url(#p)"/><path d="M322 269.252c22.644 0 41-18.356 41-41s-18.356-41-41-41-41 18.356-41 41 18.356 41 41 41Z" fill="url(#q)"/><path d="M322 269.252c22.644 0 41-18.356 41-41s-18.356-41-41-41-41 18.356-41 41 18.356 41 41 41Z" fill="url(#r)" fill-opacity=".5"/><path d="M322 269.252c22.644 0 41-18.356 41-41s-18.356-41-41-41-41 18.356-41 41 18.356 41 41 41Z" fill="url(#s)" fill-opacity=".8"/><path fill-rule="evenodd" clip-rule="evenodd" d="M289 231.752a1.5 1.5 0 1 1-3.001-.001 1.5 1.5 0 0 1 3.001.001Zm51 10a1.5 1.5 0 1 1-3.001-.001 1.5 1.5 0 0 1 3.001.001Zm9 14.5a2 2 0 1 0 .001-3.999 2 2 0 0 0-.001 3.999Z" fill="#FF8A3A"/><path fill-rule="evenodd" clip-rule="evenodd" d="M226.169 205.494a1.887 1.887 0 1 1-3.774 0 1.887 1.887 0 0 1 3.774 0Zm-11.954 3.146a1.888 1.888 0 1 0 0-3.775 1.888 1.888 0 0 0 0 3.775Zm-15.729 6.291a2.516 2.516 0 1 1-5.033.001 2.516 2.516 0 0 1 5.033-.001Zm16.358 39.637a1.887 1.887 0 1 1-3.774 0 1.887 1.887 0 0 1 3.774 0Zm21.392-38.378a1.259 1.259 0 1 0-.001-2.517 1.259 1.259 0 0 0 .001 2.517Z" fill="#1499FF"/><path fill-rule="evenodd" clip-rule="evenodd" d="M279 295.252a2 2 0 1 0 .001-3.999 2 2 0 0 0-.001 3.999Zm-5.5 3a1.5 1.5 0 1 0-.001-3.001 1.5 1.5 0 0 0 .001 3.001Zm-3.5 3.5a1.5 1.5 0 1 1-3.001-.001 1.5 1.5 0 0 1 3.001.001Zm24 9.5a2 2 0 1 0 .001-3.999 2 2 0 0 0-.001 3.999Zm-7 5a1 1 0 1 1-2 0 1 1 0 0 1 2 0Zm-2 6a1 1 0 1 0 0-2 1 1 0 0 0 0 2Zm-4 2a1 1 0 1 1-2 0 1 1 0 0 1 2 0Zm20 5a2 2 0 1 0 .001-3.999 2 2 0 0 0-.001 3.999Zm7-11.5a1.5 1.5 0 1 1-3.001-.001 1.5 1.5 0 0 1 3.001.001Zm-54.5 13.5a1.5 1.5 0 1 0-.001-3.001 1.5 1.5 0 0 0 .001 3.001Zm13.5 4a1 1 0 1 1-2 0 1 1 0 0 1 2 0Zm-35 11a2 2 0 1 0 .001-3.999 2 2 0 0 0-.001 3.999Zm13 3a1 1 0 1 1-2 0 1 1 0 0 1 2 0Zm-43 0a1 1 0 1 0 0-2 1 1 0 0 0 0 2Zm64 1a1 1 0 1 1-2 0 1 1 0 0 1 2 0Zm5 13a2 2 0 1 0 .001-3.999 2 2 0 0 0-.001 3.999Zm21 1.5a1.5 1.5 0 1 1-3.001-.001 1.5 1.5 0 0 1 3.001.001Zm12-9.5a2 2 0 1 0 .001-3.999 2 2 0 0 0-.001 3.999Z" fill="#FFD748"/><defs><radialGradient id="c" cx="0" cy="0" r="1" gradientUnits="userSpaceOnUse" gradientTransform="matrix(-21.49998 43.00005 -44.42577 -22.21284 313.499 237.752)"><stop offset=".774" stop-color="#BEBEBE"/><stop offset="1" stop-color="#EEE" stop-opacity="0"/></radialGradient><radialGradient id="f" cx="0" cy="0" r="1" gradientUnits="userSpaceOnUse" gradientTransform="rotate(162.857 111.177 115.082) scale(126.415)"><stop offset=".083" stop-color="#5AE1FF"/><stop offset=".578" stop-color="#00D0FF"/><stop offset="1" stop-color="#00C2FF"/></radialGradient><radialGradient id="k" cx="0" cy="0" r="1" gradientUnits="userSpaceOnUse" gradientTransform="matrix(-176.27592 123.49393 -60.36875 -86.1707 290.856 390.859)"><stop offset=".319" stop-color="#FFB900"/><stop offset=".49" stop-color="#FE8939"/></radialGradient><radialGradient id="l" cx="0" cy="0" r="1" gradientUnits="userSpaceOnUse" gradientTransform="rotate(121.086 96.076 222.377) scale(222.699 143.704)"><stop offset=".091" stop-color="#FEB888"/><stop offset=".668" stop-color="#FE8939"/><stop offset=".82" stop-color="#FB793B"/><stop offset="1" stop-color="#F44C40"/></radialGradient><radialGradient id="m" cx="0" cy="0" r="1" gradientUnits="userSpaceOnUse" gradientTransform="matrix(-19.90121 45.70202 -37.9391 -16.5208 259.532 132.12)"><stop offset=".375" stop-color="#E2D7CF"/><stop offset=".72" stop-color="#D5BFAF"/><stop offset=".796" stop-color="#B89F8C"/><stop offset=".859" stop-color="#CEBCAF"/><stop offset="1" stop-color="#E2D7CF"/></radialGradient><radialGradient id="n" cx="0" cy="0" r="1" gradientUnits="userSpaceOnUse" gradientTransform="matrix(-25.11286 86.90877 -85.47646 -24.69899 258.276 126.875)"><stop offset=".411" stop-color="#E2D7CF" stop-opacity="0"/><stop offset=".542" stop-color="#F3E9E2"/><stop offset=".654" stop-color="#E2D7CF" stop-opacity="0"/></radialGradient><radialGradient id="o" cx="0" cy="0" r="1" gradientUnits="userSpaceOnUse" gradientTransform="matrix(-78.36095 -9.73954 8.13743 -65.47093 304.556 144.357)"><stop stop-color="#B89F8C"/><stop offset=".505" stop-color="#E2D7CF" stop-opacity="0"/></radialGradient><radialGradient id="q" cx="0" cy="0" r="1" gradientUnits="userSpaceOnUse" gradientTransform="rotate(108.435 89.392 223.568) scale(75.3737)"><stop stop-color="#F1FFB7"/><stop offset=".25" stop-color="#B9DC4E"/><stop offset=".645" stop-color="#6FB12F"/><stop offset="1" stop-color="#FF7C03"/></radialGradient><radialGradient id="r" cx="0" cy="0" r="1" gradientUnits="userSpaceOnUse" gradientTransform="matrix(0 -29.6894 58.6719 0 320.587 269.252)"><stop stop-color="#FFAB5D"/><stop offset="1" stop-color="#FFC499" stop-opacity="0"/></radialGradient><radialGradient id="s" cx="0" cy="0" r="1" gradientUnits="userSpaceOnUse" gradientTransform="rotate(97.815 61.469 254.537) scale(72.7788)"><stop offset=".446" stop-color="#fff" stop-opacity="0"/><stop offset=".841" stop-color="#fff"/></radialGradient><linearGradient id="a" x1="371.907" y1="138.91" x2="64.4" y2="590.024" gradientUnits="userSpaceOnUse"><stop offset=".368" stop-color="#E7E7E7"/><stop offset=".628" stop-color="#C9F5FF"/></linearGradient><linearGradient id="b" x1="341.509" y1="114.103" x2="343.509" y2="213.067" gradientUnits="userSpaceOnUse"><stop offset=".328" stop-color="#BDBDBD"/><stop offset=".743" stop-color="#D9D9D9" stop-opacity="0"/></linearGradient><linearGradient id="d" x1="143.5" y1="197.251" x2="251.5" y2="236.251" gradientUnits="userSpaceOnUse"><stop offset=".045" stop-color="#D9D9D9" stop-opacity="0"/><stop offset=".216" stop-color="#BDBDBD"/><stop offset=".804" stop-color="#BDBDBD"/><stop offset=".943" stop-color="#D9D9D9" stop-opacity="0"/></linearGradient><linearGradient id="e" x1="168" y1="269.751" x2="197" y2="241.751" gradientUnits="userSpaceOnUse"><stop offset=".045" stop-color="#E3E9EB"/><stop offset=".281" stop-color="#E3E9EB" stop-opacity="0"/></linearGradient><linearGradient id="g" x1="187.162" y1="231.132" x2="155.075" y2="263.376" gradientUnits="userSpaceOnUse"><stop offset=".15" stop-color="#86E9FF" stop-opacity="0"/><stop offset=".432" stop-color="#0092E4"/></linearGradient><linearGradient id="h" x1="237" y1="369.752" x2="278.5" y2="416.252" gradientUnits="userSpaceOnUse"><stop offset=".718" stop-color="#AEBCBF"/><stop offset=".933" stop-color="#D0E5E9" stop-opacity="0"/></linearGradient><linearGradient id="i" x1="232.5" y1="333.252" x2="244.996" y2="382.753" gradientUnits="userSpaceOnUse"><stop offset=".416" stop-color="#D4F0F6"/><stop offset=".99" stop-color="#D0F2FA" stop-opacity="0"/></linearGradient><linearGradient id="j" x1="218" y1="410.752" x2="225" y2="401.753" gradientUnits="userSpaceOnUse"><stop stop-color="#D4F0F6"/><stop offset=".99" stop-color="#D0F2FA" stop-opacity="0"/></linearGradient><linearGradient id="p" x1="243.35" y1="107.514" x2="236.584" y2="158.326" gradientUnits="userSpaceOnUse"><stop offset=".598" stop-color="#E2D7CF"/><stop offset=".74" stop-color="#D5BFAF"/><stop offset=".832" stop-color="#B89F8C"/><stop offset=".933" stop-color="#CEBCAF"/><stop offset="1" stop-color="#E2D7CF"/></linearGradient></defs></svg>